{
  "accessors": [
    {
      "bufferView": 2,
      "componentType": 5126,
      "count": 2884,
      "max": [1.5158475637435913, 1.81610107421875, 2.037797212600708],
      "min": [-1.4912954568862915, -0.14663097262382507, -1.6904712915420532],
      "type": "VEC3"
    },
    {
      "bufferView": 2,
      "byteOffset": 34608,
      "componentType": 5126,
      "count": 2884,
      "max": [1.0, 1.0, 1.0],
      "min": [-1.0, -1.0, -1.0],
      "type": "VEC3"
    },
    {
      "bufferView": 1,
      "componentType": 5126,
      "count": 2884,
      "max": [0.875, 1.0],
      "min": [0.125, 0.0],
      "type": "VEC2"
    },
    {
      "bufferView": 0,
      "componentType": 5125,
      "count": 12048,
      "type": "SCALAR"
    },
    {
      "bufferView": 2,
      "byteOffset": 69216,
      "componentType": 5126,
      "count": 3910,
      "max": [1.5158475637435913, 1.5088869333267212, 2.0390918254852295],
      "min": [-1.3582067489624023, -0.14488358795642853, -1.662709355354309],
      "type": "VEC3"
    },
    {
      "bufferView": 2,
      "byteOffset": 116136,
      "componentType": 5126,
      "count": 3910,
      "max": [1.0, 1.0, 1.0],
      "min": [-1.0, -1.0, -1.0],
      "type": "VEC3"
    },
    {
      "bufferView": 1,
      "byteOffset": 23072,
      "componentType": 5126,
      "count": 3910,
      "max": [0.8627976179122925, 0.9960005879402161],
      "min": [0.1401253342628479, 0.09787698835134506],
      "type": "VEC2"
    },
    {
      "bufferView": 0,
      "byteOffset": 48192,
      "componentType": 5125,
      "count": 8574,
      "type": "SCALAR"
    },
    {
      "bufferView": 2,
      "byteOffset": 163056,
      "componentType": 5126,
      "count": 644,
      "max": [0.9206616878509521, 1.5255225896835327, 2.0083768367767334],
      "min": [-1.3576228618621826, -0.07603324949741364, -1.6538289785385132],
      "type": "VEC3"
    },
    {
      "bufferView": 2,
      "byteOffset": 170784,
      "componentType": 5126,
      "count": 644,
      "max": [0.024597983807325363, 0.9999760389328003, -0.0],
      "min": [-0.9182142615318298, -0.39610978960990906, -0.0],
      "type": "VEC3"
    },
    {
      "bufferView": 1,
      "byteOffset": 54352,
      "componentType": 5126,
      "count": 644,
      "max": [0.863001823425293, 0.7337144613265991],
      "min": [0.6249999403953552, 0.09768840670585632],
      "type": "VEC2"
    },
    {
      "bufferView": 0,
      "byteOffset": 82488,
      "componentType": 5125,
      "count": 2475,
      "type": "SCALAR"
    },
    {
      "bufferView": 2,
      "byteOffset": 178512,
      "componentType": 5126,
      "count": 18,
      "max": [-0.25304901599884033, 1.3817431926727295, 1.9784640073776245],
      "min": [-1.2857894897460938, -0.040933627635240555, 0.05377764254808426],
      "type": "VEC3"
    },
    {
      "bufferView": 2,
      "byteOffset": 178728,
      "componentType": 5126,
      "count": 18,
      "max": [0.006927747279405594, 0.9999760389328003, -0.0],
      "min": [-0.9182142615318298, -0.3960840404033661, -0.0],
      "type": "VEC3"
    },
    {
      "bufferView": 1,
      "byteOffset": 59504,
      "componentType": 5126,
      "count": 18,
      "max": [0.8623993396759033, 0.6844249367713928],
      "min": [0.6249998807907104, 0.09928040206432343],
      "type": "VEC2"
    },
    {
      "bufferView": 0,
      "byteOffset": 92388,
      "componentType": 5125,
      "count": 48,
      "type": "SCALAR"
    },
    {
      "bufferView": 2,
      "byteOffset": 178944,
      "componentType": 5126,
      "count": 216,
      "max": [1.4075407981872559, -0.060535743832588196, 2.0313944816589355],
      "min": [-0.45592162013053894, -0.11316648125648499, -1.6903607845306396],
      "type": "VEC3"
    },
    {
      "bufferView": 2,
      "byteOffset": 181536,
      "componentType": 5126,
      "count": 216,
      "max": [1.0, 1.0, 1.0],
      "min": [-1.0, -1.0, -1.0],
      "type": "VEC3"
    },
    {
      "bufferView": 1,
      "byteOffset": 59648,
      "componentType": 5126,
      "count": 216,
      "max": [0.512748122215271, 0.9957720637321472],
      "min": [0.48725181818008423, 0.4075447618961334],
      "type": "VEC2"
    },
    {
      "bufferView": 0,
      "byteOffset": 92580,
      "componentType": 5125,
      "count": 672,
      "type": "SCALAR"
    },
    {
      "bufferView": 2,
      "byteOffset": 184128,
      "componentType": 5126,
      "count": 40,
      "max": [1.4034819602966309, -0.10297924280166626, -1.6024656295776367],
      "min": [1.2234125137329102, -0.106260284781456, -1.675202488899231],
      "type": "VEC3"
    },
    {
      "bufferView": 2,
      "byteOffset": 184608,
      "componentType": 5126,
      "count": 40,
      "max": [1.0, 1.0, -0.0],
      "min": [-1.0, -1.0, -1.0],
      "type": "VEC3"
    },
    {
      "bufferView": 1,
      "byteOffset": 61376,
      "componentType": 5126,
      "count": 40,
      "max": [0.5016079545021057, 0.4636954963207245],
      "min": [0.4983919560909271, 0.4107334315776825],
      "type": "VEC2"
    },
    {
      "bufferView": 0,
      "byteOffset": 95268,
      "componentType": 5125,
      "count": 60,
      "type": "SCALAR"
    },
    {
      "bufferView": 2,
      "byteOffset": 185088,
      "componentType": 5126,
      "count": 124,
      "max": [-0.484353631734848, -0.03986474499106407, -0.75942063331604],
      "min": [-0.484353631734848, -0.12222465872764587, -1.6091941595077515],
      "type": "VEC3"
    },
    {
      "bufferView": 2,
      "byteOffset": 186576,
      "componentType": 5126,
      "count": 124,
      "max": [-1.0, 0.0, -0.0],
      "min": [-1.0, 0.0, -0.0],
      "type": "VEC3"
    },
    {
      "bufferView": 1,
      "byteOffset": 61696,
      "componentType": 5126,
      "count": 124,
      "max": [0.617044985294342, 0.24813799560070038],
      "min": [0.4696241021156311, 0.1976861208677292],
      "type": "VEC2"
    },
    {
      "bufferView": 0,
      "byteOffset": 95508,
      "componentType": 5125,
      "count": 186,
      "type": "SCALAR"
    },
    {
      "bufferView": 2,
      "byteOffset": 188064,
      "componentType": 5126,
      "count": 20,
      "max": [-0.6836236715316772, 1.7574034929275513, 2.0006027221679688],
      "min": [-1.440091848373413, 0.0038142665289342403, -1.6514320373535156],
      "type": "VEC3"
    },
    {
      "bufferView": 2,
      "byteOffset": 188304,
      "componentType": 5126,
      "count": 20,
      "max": [0.9182142615318298, 0.3960840404033661, -0.0],
      "min": [0.9182142615318298, 0.3960840404033661, -0.0],
      "type": "VEC3"
    },
    {
      "bufferView": 1,
      "byteOffset": 62688,
      "componentType": 5126,
      "count": 20,
      "max": [0.625, 0.1108403354883194],
      "min": [0.6249999403953552, 0.09113124012947083],
      "type": "VEC2"
    },
    {
      "bufferView": 0,
      "byteOffset": 96252,
      "componentType": 5125,
      "count": 54,
      "type": "SCALAR"
    }
  ],
  "asset": {
    "extras": {
      "author": "Korvoid (https://sketchfab.com/Korvoid)",
      "license": "CC-BY-4.0 (http://creativecommons.org/licenses/by/4.0/)",
      "source": "https://sketchfab.com/3d-models/cyberpunk-bar-laptop-e2e3db47f2f6491da0a1aea2be8ba805",
      "title": "Cyberpunk bar: laptop"
    },
    "generator": "Sketchfab-12.67.0",
    "version": "2.0"
  },
  "bufferViews": [
    {
      "buffer": 0,
      "byteLength": 96468,
      "name": "floatBufferViews",
      "target": 34963
    },
    {
      "buffer": 0,
      "byteLength": 62848,
      "byteOffset": 96468,
      "byteStride": 8,
      "name": "floatBufferViews",
      "target": 34962
    },
    {
      "buffer": 0,
      "byteLength": 188544,
      "byteOffset": 159316,
      "byteStride": 12,
      "name": "floatBufferViews",
      "target": 34962
    }
  ],
  "buffers": [
    {
      "byteLength": 347860,
      "uri": "scene.bin"
    }
  ],
  "materials": [
    {
      "doubleSided": true,
      "name": "Black_plastic",
      "pbrMetallicRoughness": {
        "baseColorFactor": [0.0219794, 0.0219794, 0.0219794, 1.0],
        "metallicFactor": 0.375886,
        "roughnessFactor": 0.812057
      }
    },
    {
      "doubleSided": true,
      "name": "black_plastic_3",
      "pbrMetallicRoughness": {
        "baseColorFactor": [0.00807591, 0.00807591, 0.00807591, 1.0],
        "metallicFactor": 0.375886,
        "roughnessFactor": 0.812057
      }
    },
    {
      "doubleSided": true,
      "emissiveFactor": [1.0, 1.0, 0.0],
      "name": "Advert_emission",
      "pbrMetallicRoughness": {
        "baseColorFactor": [1.0, 0.08278013630699899, 0.0, 1.0]
      }
    },
    {
      "doubleSided": true,
      "emissiveFactor": [1.0, 0.8278013630699896, 0.0],
      "name": "power_button_emission",
      "pbrMetallicRoughness": {
        "baseColorFactor": [1.0, 0.331082736515817, 0.0, 1.0]
      }
    },
    {
      "doubleSided": true,
      "name": "metal_2",
      "pbrMetallicRoughness": {
        "baseColorFactor": [0.673847, 0.673847, 0.673847, 1.0],
        "roughnessFactor": 0.18565
      }
    },
    {
      "doubleSided": true,
      "name": "Silicon",
      "pbrMetallicRoughness": {
        "baseColorFactor": [0.252944, 0.172973, 0.0880057, 1.0],
        "metallicFactor": 0.0,
        "roughnessFactor": 0.5
      }
    },
    {
      "doubleSided": true,
      "name": "dark",
      "pbrMetallicRoughness": {
        "baseColorFactor": [0.0, 0.0, 0.0, 1.0]
      }
    },
    {
      "doubleSided": true,
      "emissiveFactor": [0.8756462137077992, 1.0, 1.0],
      "name": "screen",
      "pbrMetallicRoughness": {
        "baseColorFactor": [0.0, 0.6751395395437063, 1.0, 1.0],
        "metallicFactor": 0.0
      }
    }
  ],
  "meshes": [
    {
      "name": "Object_0",
      "primitives": [
        {
          "attributes": {
            "NORMAL": 1,
            "POSITION": 0,
            "TEXCOORD_0": 2
          },
          "indices": 3,
          "material": 0,
          "mode": 4
        }
      ]
    },
    {
      "name": "Object_1",
      "primitives": [
        {
          "attributes": {
            "NORMAL": 5,
            "POSITION": 4,
            "TEXCOORD_0": 6
          },
          "indices": 7,
          "material": 1,
          "mode": 4
        }
      ]
    },
    {
      "name": "Object_2",
      "primitives": [
        {
          "attributes": {
            "NORMAL": 9,
            "POSITION": 8,
            "TEXCOORD_0": 10
          },
          "indices": 11,
          "material": 2,
          "mode": 4
        }
      ]
    },
    {
      "name": "Object_3",
      "primitives": [
        {
          "attributes": {
            "NORMAL": 13,
            "POSITION": 12,
            "TEXCOORD_0": 14
          },
          "indices": 15,
          "material": 3,
          "mode": 4
        }
      ]
    },
    {
      "name": "Object_4",
      "primitives": [
        {
          "attributes": {
            "NORMAL": 17,
            "POSITION": 16,
            "TEXCOORD_0": 18
          },
          "indices": 19,
          "material": 4,
          "mode": 4
        }
      ]
    },
    {
      "name": "Object_5",
      "primitives": [
        {
          "attributes": {
            "NORMAL": 21,
            "POSITION": 20,
            "TEXCOORD_0": 22
          },
          "indices": 23,
          "material": 5,
          "mode": 4
        }
      ]
    },
    {
      "name": "Object_6",
      "primitives": [
        {
          "attributes": {
            "NORMAL": 25,
            "POSITION": 24,
            "TEXCOORD_0": 26
          },
          "indices": 27,
          "material": 6,
          "mode": 4
        }
      ]
    },
    {
      "name": "Object_7",
      "primitives": [
        {
          "attributes": {
            "NORMAL": 29,
            "POSITION": 28,
            "TEXCOORD_0": 30
          },
          "indices": 31,
          "material": 7,
          "mode": 4
        }
      ]
    }
  ],
  "nodes": [
    {
      "children": [1],
      "matrix": [
        1.0, 0.0, 0.0, 0.0, 0.0, 2.220446049250313e-16, -1.0, 0.0, 0.0, 1.0, 2.220446049250313e-16, 0.0, 0.0,
        0.0, 0.0, 1.0
      ],
      "name": "Sketchfab_model"
    },
    {
      "children": [2],
      "name": "root"
    },
    {
      "children": [3],
      "matrix": [
        1.0, 0.0, 0.0, 0.0, 0.0, 2.220446049250313e-16, 1.0, 0.0, 0.0, -1.0, 2.220446049250313e-16, 0.0, 0.0,
        0.0, 0.0, 1.0
      ],
      "name": "GLTF_SceneRootNode"
    },
    {
      "children": [4, 5, 6, 7, 8, 9, 10, 11],
      "name": "Cube.015_0"
    },
    {
      "mesh": 0,
      "name": "Object_4"
    },
    {
      "mesh": 1,
      "name": "Object_5"
    },
    {
      "mesh": 2,
      "name": "Object_6"
    },
    {
      "mesh": 3,
      "name": "Object_7"
    },
    {
      "mesh": 4,
      "name": "Object_8"
    },
    {
      "mesh": 5,
      "name": "Object_9"
    },
    {
      "mesh": 6,
      "name": "Object_10"
    },
    {
      "mesh": 7,
      "name": "Object_11"
    }
  ],
  "scene": 0,
  "scenes": [
    {
      "name": "Sketchfab_Scene",
      "nodes": [0]
    }
  ]
}
