<svg width="60" height="60" viewBox="0 0 60 60" fill="none">
  <path d="M20.2734 41.875C20.3776 41.7188 20.3385 41.5495 20.1562 41.3672C19.9219 41.1849 19.7396 41.1589 19.6094 41.2891C19.5052 41.4453 19.5443 41.6146 19.7266 41.7969C19.9609 41.9792 20.1432 42.0052 20.2734 41.875ZM19.1797 40.2734C19.0495 40.0911 18.8932 40.0391 18.7109 40.1172C18.5547 40.2214 18.5547 40.3776 18.7109 40.5859C18.8932 40.7943 19.0495 40.8594 19.1797 40.7812C19.3359 40.6771 19.3359 40.5078 19.1797 40.2734ZM17.5781 38.7109C17.6302 38.6068 17.5651 38.5026 17.3828 38.3984C17.2005 38.3464 17.0964 38.3724 17.0703 38.4766C16.9922 38.6068 17.0443 38.7109 17.2266 38.7891C17.4349 38.8411 17.5521 38.8151 17.5781 38.7109ZM18.3984 39.6094C18.4505 39.5833 18.4701 39.5247 18.457 39.4336C18.444 39.3424 18.3984 39.2708 18.3203 39.2188C18.1641 39.0365 18.0339 38.9974 17.9297 39.1016C17.8255 39.2057 17.8385 39.349 17.9688 39.5312C18.125 39.6875 18.2682 39.7135 18.3984 39.6094ZM21.7578 42.5391C21.8099 42.3568 21.6927 42.2135 21.4062 42.1094C21.1719 42.0312 21.0026 42.0833 20.8984 42.2656C20.8464 42.4479 20.9635 42.5911 21.25 42.6953C21.4844 42.7734 21.6536 42.7214 21.7578 42.5391ZM23.3984 42.6562C23.3984 42.4479 23.2422 42.3438 22.9297 42.3438C22.6693 42.3438 22.5391 42.4479 22.5391 42.6562C22.5391 42.8646 22.6823 42.9688 22.9688 42.9688C23.2552 42.9688 23.3984 42.8646 23.3984 42.6562ZM24.9219 42.3828C24.8698 42.2005 24.7005 42.1354 24.4141 42.1875C24.1276 42.2396 24.0104 42.3568 24.0625 42.5391C24.1146 42.7474 24.2708 42.8255 24.5312 42.7734C24.7917 42.7214 24.9219 42.5911 24.9219 42.3828ZM50 30C50 24.4792 48.0469 19.7656 44.1406 15.8594C40.2344 11.9531 35.5208 10 30 10C24.4792 10 19.7656 11.9531 15.8594 15.8594C11.9531 19.7656 10 24.4792 10 30C10 34.349 11.276 38.2617 13.8281 41.7383C16.3802 45.2148 19.6615 47.6302 23.6719 48.9844C24.1406 49.0625 24.4857 48.9974 24.707 48.7891C24.9284 48.5807 25.0391 48.3203 25.0391 48.0078C25.0391 46.6536 25.026 45.4167 25 44.2969C24.8438 44.3229 24.6419 44.3555 24.3945 44.3945C24.1471 44.4336 23.6849 44.4596 23.0078 44.4727C22.3307 44.4857 21.7057 44.4336 21.1328 44.3164C20.5599 44.1992 19.9935 43.9388 19.4336 43.5352C18.8737 43.1315 18.4896 42.5911 18.2812 41.9141C17.6823 40.3776 16.9401 39.4141 16.0547 39.0234C16.0026 38.9974 15.944 38.9518 15.8789 38.8867L15.5664 38.5742L15.293 38.2031L15.4492 37.9102L16.2109 37.7734C16.3672 37.7734 16.5625 37.7995 16.7969 37.8516C17.0312 37.9036 17.4219 38.1055 17.9688 38.457C18.5156 38.8086 18.9453 39.2708 19.2578 39.8438C19.6745 40.5729 20.1628 41.1198 20.7227 41.4844C21.2826 41.849 21.849 42.0312 22.4219 42.0312C22.9948 42.0312 23.4896 41.9857 23.9062 41.8945C24.3229 41.8034 24.7135 41.6797 25.0781 41.5234C25.2604 40.2995 25.6901 39.401 26.3672 38.8281C25.0911 38.6719 23.9714 38.431 23.0078 38.1055C22.0443 37.7799 21.0938 37.2721 20.1562 36.582C19.2188 35.8919 18.4961 34.9023 17.9883 33.6133C17.4805 32.3242 17.2266 30.7682 17.2266 28.9453C17.2266 26.888 17.9167 25.1042 19.2969 23.5938C18.6719 21.9792 18.737 20.2083 19.4922 18.2812C19.987 18.125 20.6966 18.2227 21.6211 18.5742C22.5456 18.9258 23.3333 19.3099 23.9844 19.7266L25 20.3516C26.5104 19.9089 28.1771 19.6875 30 19.6875C31.8229 19.6875 33.4896 19.9089 35 20.3516C35.2865 20.1693 35.6576 19.9349 36.1133 19.6484C36.569 19.362 37.2917 19.0234 38.2812 18.6328C39.2708 18.2422 40.013 18.125 40.5078 18.2812C41.263 20.2083 41.3281 21.9792 40.7031 23.5938C42.0833 25.1042 42.7734 26.888 42.7734 28.9453C42.7734 30.4297 42.5911 31.7383 42.2266 32.8711C41.862 34.0039 41.3997 34.9154 40.8398 35.6055C40.2799 36.2956 39.5833 36.875 38.75 37.3438C37.9167 37.8125 37.1029 38.151 36.3086 38.3594C35.5143 38.5677 34.6224 38.724 33.6328 38.8281C34.5443 39.6354 35 40.8724 35 42.5391C35 43.5807 34.9935 44.7396 34.9805 46.0156C34.9674 47.2917 34.9609 47.9557 34.9609 48.0078C34.9609 48.3203 35.0716 48.5807 35.293 48.7891C35.5143 48.9974 35.8594 49.0625 36.3281 48.9844C40.3385 47.6302 43.6198 45.2148 46.1719 41.7383C48.724 38.2617 50 34.349 50 30ZM60 11.25V48.75C60 51.849 58.8997 54.4987 56.6992 56.6992C54.4987 58.8997 51.849 60 48.75 60H11.25C8.15104 60 5.5013 58.8997 3.30078 56.6992C1.10026 54.4987 0 51.849 0 48.75V11.25C0 8.15104 1.10026 5.5013 3.30078 3.30078C5.5013 1.10026 8.15104 0 11.25 0H48.75C51.849 0 54.4987 1.10026 56.6992 3.30078C58.8997 5.5013 60 8.15104 60 11.25Z" fill="currentColor" />
</svg>